<svg width="26" height="32" viewBox="0 0 26 32" fill="none" xmlns="http://www.w3.org/2000/svg">
<path d="M12.655 13.674H16.9299L15.6347 19.22H11.18H10.9843L10.9373 19.41L8.43033 29.544H2.21522L7.68338 7.67237C8.1712 6.00159 8.9602 4.70456 10.0417 3.76623C11.1206 2.83023 12.506 2.23771 14.2113 1.99902H23.1827L21.8481 7.54402H15.605C15.1263 7.54402 14.6831 7.71398 14.2842 8.03533L14.2842 8.03532L14.2818 8.03729C13.8998 8.3529 13.6362 8.78866 13.5339 9.27332L12.4139 13.3579L12.3272 13.674H12.655Z" fill="white" stroke="black" stroke-width="0.5"/>
<path d="M16.6141 25.7562C17.0766 26.2101 17.3517 26.8197 17.3875 27.4644L17.3901 27.5616C17.3993 27.908 17.339 28.2528 17.2127 28.5756C17.0865 28.8984 16.8969 29.1926 16.6551 29.4408C16.4133 29.6891 16.1242 29.8865 15.8049 30.0212C15.4856 30.156 15.1426 30.2254 14.796 30.2254C14.4494 30.2254 14.1064 30.156 13.7871 30.0212C13.4678 29.8865 13.1787 29.6891 12.9369 29.4408C12.6951 29.1926 12.5055 28.8984 12.3792 28.5756C12.253 28.2528 12.1927 27.908 12.2019 27.5616L12.2019 27.5597C12.2147 26.88 12.4936 26.2324 12.9788 25.7562C13.464 25.2801 14.1167 25.0133 14.7965 25.0133C15.4763 25.0133 16.129 25.2801 16.6141 25.7562Z" fill="#5BC096" stroke="black" stroke-width="0.5"/>
</svg>
